# xmcd
#
# Track frame offsets:
#	150
#	17766
#	32634
#	45775
#	59389
#	67756
#	84697
#	94144
#	108380
#	112325
#	121029
#	129066
#	144382
#	158069
#	167738
#	180548
#	192512
#	201798
#	212493
#	223690
#	234757
#	243784
#	255316
#	265338
#	277339
#	289423
#	300482
#	311126
#	321044
#	332033
#	342174
#
# Disc length: 4692 seconds
#
# Revision: 1
# Processed by: cddbd v1.5.2PL0 Copyright (c) Steve Scherf et al.
# Submitted via: audiograbber 1.83.01
#
DISCID=b812521f
DTITLE=Bob Wills and his Texas Playboys - Faded Love 1947 - 1973 [CD10)
DYEAR=2005
DGENRE=Western Swing
TTITLE0=Big Taters In The Sandy Land
TTITLE1=Mayflower Waltz
TTITLE2=Billy In The Low Ground
TTITLE3=Beaumont Rag
TTITLE4=Faded Love
TTITLE5=Dian Waltz
TTITLE6=Done Gone
TTITLE7=Put Your Little Foot
TTITLE8=Bob's First Fiddle Tune
TTITLE9=Bob's Schottische
TTITLE10=Gone Indian
TTITLE11=No Disappointment's In Heaven
TTITLE12=Faded Love
TTITLE13=Wills Junction
TTITLE14=You'll Never Walk Out Of My Heart
TTITLE15=Betty's Waltz
TTITLE16=(Old) San Antonio Rose
TTITLE17=She Won't Let Me Forget Her
TTITLE18=I Just Can't Take It Anymore
TTITLE19=She's Killin' Me
TTITLE20=If No News Is Good News
TTITLE21=You're The Only Star In My Blue Heaven
TTITLE22=A Big Ball In Cowtown
TTITLE23=Where Do I Go From Here
TTITLE24=Gone Indian
TTITLE25=Pinto Beans
TTITLE26=Guess I'll Move On Down The Line
TTITLE27=My Adobe Hacienda
TTITLE28=What's Fort Worth
TTITLE29=Deep In The Heart Of Texas
TTITLE30=Kansas City
EXTD=
EXTT0=
EXTT1=
EXTT2=
EXTT3=
EXTT4=
EXTT5=
EXTT6=
EXTT7=
EXTT8=
EXTT9=
EXTT10=
EXTT11=
EXTT12=
EXTT13=
EXTT14=
EXTT15=
EXTT16=
EXTT17=
EXTT18=
EXTT19=
EXTT20=
EXTT21=
EXTT22=
EXTT23=
EXTT24=
EXTT25=
EXTT26=
EXTT27=
EXTT28=
EXTT29=
EXTT30=
PLAYORDER=
